<svg xmlns="http://www.w3.org/2000/svg" height="512pt" version="1.1" viewBox="-66 0 512 512" width="512pt">
<g id="surface1">
<path d="M 178.84375 288.277344 L 173.949219 288.277344 L 173.949219 431.652344 L 203.957031 431.652344 L 203.957031 288.277344 Z M 178.84375 288.277344 " style=" stroke:none;fill-rule:nonzero;fill:rgb(0%,0%,0%);fill-opacity:1;" />
<path d="M 228.542969 431.652344 L 258.632812 431.652344 L 269.335938 288.277344 L 239.238281 288.277344 Z M 228.542969 431.652344 " style=" stroke:none;fill-rule:nonzero;fill:rgb(0%,0%,0%);fill-opacity:1;" />
<path d="M 108.574219 288.277344 L 119.269531 431.652344 L 149.363281 431.652344 L 138.664062 288.277344 Z M 108.574219 288.277344 " style=" stroke:none;fill-rule:nonzero;fill:rgb(0%,0%,0%);fill-opacity:1;" />
<path d="M 268.851562 209.027344 L 359.792969 118.089844 L 241.707031 0 L 66.136719 175.570312 L 99.59375 209.027344 L 0 209.027344 L 0 239.035156 L 35.21875 239.035156 L 72.667969 512 L 305.242188 512 L 342.691406 239.035156 L 380.5 239.035156 L 380.5 209.027344 Z M 98.832031 481.992188 L 65.496094 239.035156 L 312.402344 239.035156 L 279.066406 481.992188 Z M 221.59375 62.554688 L 211.570312 145.433594 L 128.691406 155.457031 Z M 119.765625 186.761719 L 238.535156 172.398438 L 252.898438 53.632812 L 317.355469 118.089844 L 226.414062 209.027344 L 142.035156 209.027344 Z M 119.765625 186.761719 " style=" stroke:none;fill-rule:nonzero;fill:rgb(0%,0%,0%);fill-opacity:1;" />
</g>
</svg>